<svg xmlns="http://www.w3.org/2000/svg" width="17" height="15" viewBox="0 0 17 15" fill="none">
  <g clip-path="url(#clip0_1500_119)">
    <path d="M7.42797 0.000610352C3.60045 0.000610352 0.486877 2.39766 0.486877 5.34406C0.486877 6.83647 1.28014 8.23608 2.68026 9.2429C2.21719 9.9263 1.61828 10.6181 0.862688 10.7944C0.623716 10.8506 0.46407 11.0644 0.48886 11.2959C0.51365 11.5284 0.714941 11.7074 0.961846 11.7178C0.972754 11.7178 1.01539 11.7196 1.08679 11.7196C1.59944 11.7196 3.57864 11.6418 5.82458 10.5403C6.33921 10.6388 6.87764 10.6875 7.42797 10.6875C11.2545 10.6875 14.3691 8.29045 14.3691 5.34406C14.3691 2.39766 11.2545 0.000610352 7.42797 0.000610352Z" fill="white"/>
    <path d="M15.9756 14.0406C15.3439 13.8934 14.866 13.4566 14.5318 13.0235C15.695 12.162 16.3524 10.9771 16.3524 9.71431C16.3524 8.65687 15.8824 7.68474 15.102 6.90759C14.2205 9.61588 11.1198 11.6248 7.42811 11.6248C6.93529 11.6248 6.44842 11.5892 5.97543 11.5189C5.69382 11.6473 5.41816 11.7608 5.14746 11.862C6.14797 13.315 8.12717 14.3078 10.4029 14.3078C10.8679 14.3078 11.3191 14.2675 11.7475 14.1887C13.1704 14.874 14.4684 15.0006 15.2319 14.9996C15.6503 14.9996 15.9081 14.9621 15.9369 14.9574C16.1689 14.9218 16.3425 14.7362 16.3524 14.514C16.3613 14.2919 16.2046 14.0931 15.9756 14.0406Z" fill="white"/>
  </g>
  <defs>
    <clipPath id="clip0_1500_119">
      <rect width="15.8663" height="15" fill="white" transform="translate(0.486328)"/>
    </clipPath>
  </defs>
</svg>